<svg version="1.2" xmlns="http://www.w3.org/2000/svg" viewBox="0 0 170 128" width="170" height="128"><style>.s0{fill:#f0f4f7}</style><path class="s0" d="m41.3 98.6c0 1.5-1.2 2.7-2.6 2.7h-20.6c-1.5 0-2.7-1.2-2.7-2.7c0-1.4 1.2-2.6 2.7-2.6h20.6c1.4 0 2.6 1.2 2.6 2.6zm-18.1-66.2c2.2 0 4.2 0.9 5.6 2.3c1.4 1.4 2.2 3.3 2.2 5.4c0 2.2-0.8 4.1-2.2 5.5h-0.1c-1.4 1.4-3.3 2.3-5.5 2.3c-2.1 0-4.1-0.9-5.5-2.3c-1.4-1.4-2.3-3.3-2.3-5.5c0-2.1 0.9-4 2.3-5.4c1.4-1.4 3.4-2.3 5.5-2.3zm-1.7 9.5c0.4 0.4 1.1 0.7 1.7 0.7c0.7 0 1.4-0.3 1.8-0.7c0.4-0.5 0.7-1.1 0.7-1.8c0-0.6-0.3-1.3-0.7-1.7c-0.4-0.5-1.1-0.7-1.8-0.7c-0.6 0-1.3 0.2-1.7 0.7c-0.5 0.4-0.7 1.1-0.7 1.7c0 0.7 0.2 1.3 0.7 1.8zm77.2-23c-1.4 0-2.6-1.2-2.6-2.6c0-1.5 1.2-2.7 2.6-2.7h27.5c1.4 0 2.6 1.2 2.6 2.7c0 1.4-1.2 2.6-2.6 2.6zm41 24.7v0.1c7 6.9 11.4 16.5 11.4 27.1c0 10.6-4.4 20.2-11.4 27.2c-7 6.9-16.6 11.2-27.3 11.2c-10.7 0-20.4-4.3-27.4-11.2c-6.9-7-11.3-16.6-11.3-27.2c0-10.6 4.3-20.2 11.3-27.2c7-6.9 16.7-11.2 27.4-11.2c10.7 0 20.3 4.3 27.3 11.2zm-27.3-5.9c-9.2 0-17.6 3.7-23.6 9.7c-6 6-9.8 14.3-9.8 23.4c0 9.2 3.8 17.5 9.8 23.5c6 6 14.4 9.7 23.6 9.7c9.2 0 17.6-3.7 23.6-9.7c6-6 9.8-14.3 9.8-23.5c0-9.1-3.8-17.4-9.8-23.4c-6-6-14.4-9.7-23.6-9.7zm18.9 51.8v0.1c-4.9 4.7-11.5 7.7-18.9 7.7c-7.4 0-14-2.9-18.9-7.7v-0.1c-4.8-4.8-7.8-11.4-7.8-18.7c0-7.3 3-13.9 7.8-18.7c4.9-4.8 11.5-7.8 18.9-7.8c7.4 0 14 3 18.9 7.8c4.8 4.8 7.8 11.4 7.8 18.7c0 7.3-3 13.9-7.8 18.7zm-3.8-33.7c-3.9-3.8-9.2-6.2-15.1-6.2c-5.9 0-11.2 2.4-15.1 6.2c-3.9 3.8-6.3 9.2-6.3 15c0 5.9 2.4 11.2 6.3 15c3.9 3.9 9.2 6.2 15.1 6.2c5.9 0 11.2-2.3 15.1-6.2c3.9-3.8 6.2-9.1 6.2-15c0.1-5.8-2.3-11.2-6.2-15zm-15.1 5.7c-1.3 0-2.5 0.3-3.6 0.7c-1.1 0.5-2.1 1.2-3 2c-0.8 0.9-1.5 1.9-2 2.9v0.2c-0.5 1-0.8 2.2-0.8 3.5c0 1.5-1.1 2.7-2.6 2.7c-1.5 0-2.7-1.2-2.7-2.7c0-1.9 0.4-3.8 1.2-5.6v-0.1c0.8-1.7 1.8-3.3 3.1-4.6c1.4-1.3 3-2.4 4.8-3.1c1.7-0.8 3.6-1.2 5.6-1.2c1.5 0 2.7 1.2 2.7 2.7c0 1.4-1.2 2.6-2.7 2.6zm52.7 61.7c-2.9 3-7 4.8-11.5 4.8h-137.3c-4.5 0-8.6-1.8-11.5-4.8c-3-2.9-4.8-7-4.8-11.5v-81.8c0-4.5 1.8-8.6 4.8-11.5c2.9-2.9 7-4.8 11.5-4.8h54.9c1.5 0 2.7 1.2 2.7 2.7c0 1.4-1.2 2.6-2.7 2.6h-54.9c-3 0-5.8 1.3-7.8 3.2c-2 2-3.2 4.8-3.2 7.8v81.8c0 3 1.2 5.8 3.2 7.8c2 2 4.8 3.2 7.8 3.2h137.3c3 0 5.8-1.2 7.8-3.2c2-2 3.2-4.8 3.2-7.8v-81.8c0-3-1.2-5.7-3.1-7.6l-0.1-0.2c-2-1.9-4.8-3.2-7.8-3.2h-13.8q0 0 0 0q0 0 0 0c-1.4 0-2.6-1.2-2.6-2.6c0-3-1.3-5.8-3.3-7.8c-2-2-4.7-3.2-7.8-3.2h-27.4c-3.1 0-5.8 1.2-7.8 3.2c-2 2-3.3 4.8-3.3 7.8c0 1.4-1.2 2.6-2.6 2.6c-1.5 0-2.7-1.2-2.7-2.6c0-4.5 1.8-8.6 4.8-11.5c3-3 7.1-4.8 11.6-4.8h27.4c4.5 0 8.6 1.8 11.6 4.8c2.4 2.3 4 5.4 4.6 8.8h11.3c4.5 0 8.6 1.9 11.5 4.8l0.2 0.2c2.9 2.9 4.7 6.9 4.7 11.3v81.8c0 4.5-1.9 8.6-4.9 11.5zm0.2-104.6l-0.2 3.5c1-0.9 1.1-2.5 0.2-3.5z" /></svg>