<svg version="1.2" xmlns="http://www.w3.org/2000/svg" viewBox="0 0 32 23" width="32" height="23"><style>.s0{fill:#b5b5b5}</style><path class="s0" d="m12.4 2.5c0-0.2 0.3-0.5 0.6-0.5h6.8c0.5 0 1.3 0.5 1.5 1l2.1 4.5c0.1 0.2 0.1 0.4 0 0.5c-0.1 0.2-0.3 0.2-0.4 0.2h-19.7c-0.2 0-0.4-0.1-0.5-0.3c0-0.2 0-0.4 0.1-0.5l4.1-4.4c0.5-0.5 1.6-1 2.3-1h1.6c0.3 0 0.5 0.3 0.5 0.5c0 0.3-0.2 0.6-0.5 0.6h-1.6c-0.4 0-1.3 0.3-1.6 0.6l-3.2 3.5h7.9zm9.8 4.7l-1.8-3.8c-0.1-0.1-0.4-0.4-0.6-0.4h-6.3v4.2zm7.4 10.5h-1.3c-0.2 2.5-2.4 4.6-5 4.6c-2.8 0-5.1-2.3-5.1-5.1c0-2.9 2.3-5.1 5.1-5.1c2.6 0 4.8 2 5 4.5h1.3c0.7 0 1.2-0.6 1.2-1.5v-2c-1.6-0.2-2.9-1.6-2.9-3.4q0-0.3 0.1-0.5l-2-0.7c-0.6-0.2-1.4-0.9-1.7-1.5l-2.1-4.5c-0.3-0.8-1.5-1.5-2.4-1.5h-10.5c-1 0-2.4 0.6-3 1.3l-4.7 5c-0.3 0.3-0.6 1-0.6 1.4v6.4c0 0.9 0.7 1.5 1.5 1.5h1c0.2-2.5 2.4-4.5 5-4.5c2.7 0 4.8 2 5.1 4.5h3.1c0.3 0 0.5 0.3 0.5 0.6c0 0.2-0.2 0.5-0.5 0.5h-3.1c-0.3 2.5-2.4 4.6-5.1 4.6c-2.6 0-4.8-2.1-5-4.6h-1c-1.4 0-2.5-1.2-2.5-2.6v-6.4c0-0.7 0.4-1.6 0.8-2.1l4.7-5c0.9-0.9 2.6-1.6 3.8-1.6h10.5c1.3 0 2.8 0.9 3.4 2.1l2.1 4.5c0.1 0.3 0.7 0.8 1.1 0.9c0 0 2.3 0.8 2.3 0.8c1.7 0.6 3.1 2.5 3.1 4.4v2.4c0 1.4-1 2.6-2.2 2.6zm-6.3-4.6c-2.3 0-4.1 1.8-4.1 4.1c0 2.2 1.8 4 4.1 4c2.2 0 4.1-1.8 4.1-4c0-2.3-1.9-4.1-4.1-4.1zm-14.8 8.1c2.3 0 4.1-1.8 4.1-4c0-2.3-1.8-4.1-4.1-4.1c-2.2 0-4 1.8-4 4.1c0 2.2 1.8 4 4 4zm20.4-11.7q0 0.1 0 0.2c0 1.2 0.8 2.1 1.9 2.4c-0.3-1-1-2-1.9-2.6zm-20.4 5.3c1.4 0 2.4 1 2.4 2.4c0 1.3-1 2.3-2.4 2.3c-1.3 0-2.3-1-2.3-2.3c0-1.4 1-2.4 2.3-2.4zm0 3.7c0.8 0 1.4-0.6 1.4-1.3c0-0.8-0.6-1.4-1.4-1.4c-0.7 0-1.3 0.6-1.3 1.4c0 0.7 0.6 1.3 1.3 1.3zm14.8 1c-1.3 0-2.4-1-2.4-2.3c0-1.4 1.1-2.4 2.4-2.4c1.3 0 2.4 1 2.4 2.4c0 1.3-1.1 2.3-2.4 2.3zm0-3.7c-0.8 0-1.4 0.6-1.4 1.4c0 0.7 0.6 1.3 1.4 1.3c0.7 0 1.3-0.6 1.3-1.3c0-0.8-0.6-1.4-1.3-1.4z" /></svg>