<svg version="1.2" xmlns="http://www.w3.org/2000/svg" viewBox="0 0 32 32" width="32" height="32"><style>.s0{fill:#b5b5b5}</style><path class="s0" d="m31.3 27.8c-0.9 0-1.9-0.4-2.5-1.1c-0.7 0.7-1.6 1.1-2.6 1.1c-1 0-1.9-0.4-2.6-1.1c-0.7 0.7-1.6 1.1-2.5 1.1c-1 0-1.9-0.4-2.6-1.1c-0.7 0.7-1.6 1.1-2.6 1.1c-0.9 0-1.9-0.4-2.5-1.1c-0.7 0.7-1.6 1.1-2.6 1.1c-1 0-1.9-0.4-2.6-1.1c-0.7 0.7-1.6 1.1-2.6 1.1c-0.9 0-1.8-0.4-2.5-1.1c-0.7 0.7-1.6 1.1-2.6 1.1c-0.3 0-0.5-0.3-0.5-0.5c0-0.3 0.2-0.5 0.5-0.5c0.9 0 1.7-0.4 2.2-1.1q0.1-0.2 0.4-0.2q0.2 0 0.4 0.2c0.5 0.6 1.3 1.1 2.1 1.1c0.9 0 1.7-0.5 2.2-1.1q0.2-0.2 0.4-0.2q0.3 0 0.4 0.2c0.5 0.6 1.3 1.1 2.2 1.1c0.8 0 1.6-0.4 2.1-1.1q0.2-0.2 0.5-0.2q0.2 0 0.4 0.2c0.5 0.6 1.3 1.1 2.1 1.1c0.9 0 1.7-0.5 2.2-1.1q0.1-0.2 0.4-0.2q0.2 0 0.4 0.2c0.5 0.7 1.3 1.1 2.2 1.1c0.8 0 1.6-0.5 2.1-1.1q0.2-0.2 0.4-0.2q0.3 0 0.4 0.2c0.5 0.6 1.3 1.1 2.2 1.1c0.8 0 1.6-0.5 2.1-1.1q0.2-0.2 0.5-0.2q0.2 0 0.4 0.2c0.5 0.7 1.3 1.1 2.1 1.1c0.3 0 0.5 0.2 0.5 0.5c0 0.2-0.2 0.5-0.5 0.5zm-4.3-2.5c-0.1 0.2-0.3 0.4-0.6 0.4c-0.3 0-0.5-0.3-0.4-0.6l1.3-9.3l-3.5-1.5q0 0 0 0l-7.4-3.2v14.1c0 0.3-0.2 0.5-0.5 0.5c-0.3 0-0.5-0.2-0.5-0.5v-14.1l-10.9 4.7l1.4 9.3c0 0.3-0.2 0.6-0.5 0.6q0 0-0.1 0c-0.2 0-0.4-0.2-0.5-0.4l-1.3-9.7c-0.1-0.2 0.1-0.5 0.3-0.5l3.5-1.6l0.4-6.6c0.1-1 0.9-1.7 1.8-1.7h3.2v-4.2c0-0.1 0.1-0.3 0.3-0.4c0.1 0 1.2-0.6 2.9-0.6c1.7 0 2.9 0.6 2.9 0.6c0.2 0.1 0.3 0.3 0.3 0.4v4.2h3.2c0.9 0 1.8 0.7 1.8 1.7l0.4 6.6l3.6 1.6c0.2 0 0.3 0.3 0.3 0.5zm-8.9-23.9c-0.4-0.1-1.2-0.4-2.2-0.4c-1 0-1.8 0.3-2.2 0.4v3.8h4.4zm5 5.5c-0.1-0.4-0.4-0.7-0.8-0.7h-12.8c-0.4 0-0.8 0.3-0.8 0.7l-0.4 6.2c0 0 7.4-3.3 7.4-3.3q0 0 0 0q0 0 0 0q0.1 0 0.1 0q0.1 0 0.1 0q0.1 0 0.1 0q0 0 0 0q0.1 0 0.1 0l7.4 3.3zm-13.4 0.7c0-0.3 0.2-0.5 0.5-0.5h11.4c0.3 0 0.5 0.2 0.5 0.5c0 0.3-0.2 0.5-0.5 0.5h-11.4c-0.3 0-0.5-0.2-0.5-0.5zm-9.2 23.1c0.8 0 1.6-0.4 2.1-1.1q0.2-0.2 0.4-0.2q0.3 0 0.5 0.2c0.5 0.7 1.3 1.1 2.1 1.1c0.9 0 1.7-0.4 2.2-1.1q0.1-0.2 0.4-0.2q0.2 0 0.4 0.2c0.5 0.7 1.3 1.1 2.2 1.1c0.8 0 1.6-0.4 2.1-1.1q0.2-0.2 0.4-0.2q0.3 0 0.4 0.2c0.5 0.7 1.3 1.1 2.2 1.1c0.8 0 1.6-0.4 2.1-1.1q0.2-0.2 0.5-0.2q0.2 0 0.4 0.2c0.5 0.7 1.3 1.1 2.1 1.1c0.9 0 1.7-0.4 2.2-1.1q0.1-0.2 0.4-0.2q0.2 0 0.4 0.2c0.5 0.7 1.3 1.1 2.2 1.1c0.8 0 1.6-0.4 2.1-1.1q0.2-0.2 0.4-0.2q0.3 0 0.4 0.2c0.5 0.7 1.3 1.1 2.2 1.1c0.3 0 0.5 0.3 0.5 0.6c0 0.2-0.2 0.5-0.5 0.5c-1 0-1.9-0.4-2.6-1.1c-0.7 0.7-1.6 1.1-2.5 1.1c-1 0-1.9-0.4-2.6-1.1c-0.7 0.7-1.6 1.1-2.6 1.1c-1 0-1.9-0.4-2.5-1.1c-0.7 0.7-1.7 1.1-2.6 1.1c-1 0-1.9-0.4-2.6-1.1c-0.7 0.7-1.6 1.1-2.5 1.1c-1 0-1.9-0.4-2.6-1.1c-0.7 0.7-1.6 1.1-2.6 1.1c-0.9 0-1.9-0.4-2.6-1.1c-0.6 0.7-1.6 1.1-2.5 1.1c-0.3 0-0.5-0.3-0.5-0.5c0-0.3 0.2-0.6 0.5-0.6z" /></svg>