<svg version="1.2" xmlns="http://www.w3.org/2000/svg" viewBox="0 0 32 32" width="32" height="32"><style>.s0{fill:#b5b5b5}</style><path class="s0" d="m13.5 1.5c-0.1-0.4 0.1-0.7 0.5-0.7c0.3-0.1 0.6 0.2 0.6 0.5l1 6.7c0 0.3-0.2 0.6-0.5 0.6q-0.1 0-0.1 0c-0.3 0-0.5-0.2-0.6-0.5zm15.7 2.3l-0.4 0.5c-0.3 0.2-0.3 0.6 0 0.8c0.2 0.2 0.6 0.2 0.8 0l0.5-0.5l0.4 0.5q0.2 0.2 0.5 0.2q0.2 0 0.4-0.2c0.2-0.2 0.2-0.6 0-0.8l-0.5-0.5l0.5-0.5c0.2-0.2 0.2-0.6 0-0.8c-0.3-0.2-0.6-0.2-0.9 0l-0.4 0.5l-0.5-0.5c-0.2-0.2-0.6-0.2-0.8 0c-0.3 0.2-0.3 0.6 0 0.8zm-17.3 7.8q0.1 0.2 0.4 0.2q0.2 0 0.4-0.1c0.3-0.2 0.3-0.6 0.1-0.9l-5.3-6.8c-0.2-0.3-0.5-0.3-0.8-0.1c-0.3 0.2-0.3 0.5-0.1 0.8zm-9.8-5.6l0.2 0.2q0.2 0.1 0.4 0.1q0.3 0 0.4-0.2c0.2-0.3 0.2-0.6-0.1-0.8l-0.2-0.2c-0.2-0.2-0.6-0.1-0.8 0.1c-0.2 0.3-0.1 0.6 0.1 0.8zm-0.5 7.4c-0.3 0-0.6 0.2-0.7 0.5c0 0.4 0.2 0.7 0.6 0.7l6 0.8q0.1 0 0.1 0c0.3 0 0.6-0.2 0.6-0.5c0.1-0.3-0.2-0.6-0.5-0.7zm2.5-5.9l5.7 4.5q0.2 0.1 0.4 0.1q0.3 0 0.5-0.2c0.2-0.3 0.1-0.7-0.1-0.9l-5.8-4.4c-0.3-0.2-0.7-0.2-0.9 0.1c-0.2 0.3-0.1 0.6 0.2 0.8zm12.8 1.3q0 0 0.1 0c0.2 0 0.5-0.2 0.5-0.5l1-6.7c0-0.3-0.2-0.6-0.6-0.7c-0.3 0-0.6 0.2-0.6 0.5l-0.9 6.8c-0.1 0.3 0.1 0.6 0.5 0.6zm13.6 8.4l-8.2-1c-0.3-0.1-0.6 0.2-0.7 0.5c0 0.3 0.2 0.6 0.5 0.6l8.2 1.1q0 0 0.1 0c0.3 0 0.5-0.2 0.6-0.5c0-0.3-0.2-0.6-0.5-0.7zm0.5-3.2c-0.1-0.4-0.4-0.6-0.7-0.5l-6.1 0.8c-0.4 0-0.6 0.3-0.5 0.6c0 0.3 0.3 0.5 0.6 0.5q0 0 0 0l6.2-0.8c0.3 0 0.5-0.3 0.5-0.6zm-3.9-7.4l-5.7 4.4c-0.3 0.2-0.3 0.6-0.1 0.9q0.2 0.2 0.4 0.2q0.2 0 0.4-0.1l5.8-4.4c0.2-0.2 0.3-0.6 0.1-0.9c-0.2-0.2-0.6-0.3-0.9-0.1zm-1.5-3.1q0.1 0.1 0.3 0.1q0.3 0 0.5-0.3c0.2-0.3 0.2-0.7-0.1-0.9c-0.2-0.2-0.6-0.1-0.8 0.1l-0.1 0.1c-0.2 0.3-0.1 0.7 0.2 0.9zm1-1.4q0.2 0.1 0.4 0.1q0.3 0 0.4-0.2l0.1-0.1c0.2-0.3 0.2-0.6-0.1-0.8c-0.3-0.2-0.6-0.2-0.8 0.1h-0.1c-0.2 0.3-0.1 0.7 0.1 0.9zm-7.4 9.6q0.2 0.1 0.4 0.1q0.3 0 0.5-0.2l5.2-6.8c0.2-0.3 0.1-0.7-0.1-0.9c-0.3-0.2-0.6-0.1-0.8 0.1l-5.3 6.9c-0.2 0.2-0.1 0.6 0.1 0.8zm-18-7.1c0.2-0.3 0.2-0.6-0.1-0.8l-0.1-0.1c-0.3-0.2-0.6-0.2-0.8 0.1c-0.3 0.3-0.2 0.6 0.1 0.8l0.1 0.1q0.1 0.1 0.3 0.1q0.3 0 0.5-0.2zm18.6 16c0 0.2-0.1 0.5-0.3 0.6c-0.2 0.1-0.4 0.1-0.7 0l-2.7-1.9l-3.1 1.9q-0.1 0.1-0.3 0.1q-0.2 0-0.3-0.1c-0.2-0.2-0.3-0.4-0.2-0.7l0.9-3.2l-2.7-2.3c-0.2-0.1-0.3-0.4-0.2-0.6c0.1-0.2 0.3-0.4 0.5-0.4l3.4-0.1l1.3-3.3c0.1-0.3 0.3-0.4 0.6-0.4c0.2 0 0.4 0.2 0.5 0.4l1.2 3.1l3.5 0.3c0.3 0 0.5 0.2 0.5 0.4c0.1 0.2 0 0.5-0.2 0.6l-2.6 2.1zm-1.9-4.1l1.7-1.4l-2.3-0.1c-0.3-0.1-0.5-0.2-0.6-0.4l-0.7-2.1l-0.9 2.2c-0.1 0.2-0.3 0.4-0.6 0.4l-2.2 0.1l1.9 1.5c0.2 0.2 0.2 0.4 0.2 0.6l-0.6 2.2l2-1.3c0.2-0.1 0.5-0.1 0.6 0l1.9 1.2l-0.6-2.3c0-0.2 0-0.5 0.2-0.6zm9.9 13.9c-0.2-0.3-0.6-0.3-0.9-0.1c-0.2 0.2-0.3 0.5-0.1 0.8l0.1 0.1q0.2 0.2 0.5 0.2q0.2 0 0.4-0.1c0.2-0.2 0.3-0.6 0.1-0.8zm-26.2-18.6l0.5-0.5l0.5 0.5q0.2 0.2 0.4 0.2q0.2 0 0.4-0.2c0.3-0.2 0.3-0.6 0-0.8l-0.4-0.5l0.4-0.5c0.3-0.2 0.3-0.6 0-0.8c-0.2-0.2-0.6-0.2-0.8 0l-0.5 0.5l-0.5-0.5c-0.2-0.2-0.6-0.2-0.8 0c-0.2 0.2-0.2 0.6 0 0.8l0.5 0.5l-0.5 0.5c-0.2 0.2-0.2 0.6 0 0.8c0.2 0.2 0.6 0.2 0.8 0zm25 17.1l-0.1-0.1c-0.2-0.3-0.5-0.3-0.8-0.1c-0.3 0.2-0.3 0.5-0.1 0.8l0.1 0.1q0.2 0.2 0.4 0.2q0.2 0 0.4-0.1c0.3-0.2 0.3-0.6 0.1-0.8zm4.8-6.9l0.5-0.5c0.2-0.2 0.2-0.6 0-0.8c-0.3-0.2-0.7-0.2-0.9 0l-0.5 0.4l-0.4-0.4c-0.3-0.2-0.6-0.2-0.9 0c-0.2 0.2-0.2 0.6 0 0.8l0.5 0.5l-0.5 0.5c-0.2 0.2-0.2 0.6 0 0.8c0.3 0.2 0.6 0.2 0.9 0l0.4-0.5l0.5 0.5q0.2 0.2 0.4 0.2q0.3 0 0.5-0.2c0.2-0.2 0.2-0.6 0-0.8zm-3.5 2.4l-5.6-4.3c-0.3-0.2-0.6-0.2-0.8 0.1c-0.2 0.3-0.2 0.6 0.1 0.8l5.5 4.3q0.2 0.1 0.4 0.1q0.3 0 0.5-0.2c0.2-0.3 0.1-0.6-0.1-0.8zm-5.6-1.1c-0.2-0.3-0.6-0.3-0.8-0.1c-0.3 0.2-0.3 0.5-0.1 0.8l2.9 3.9q0.2 0.2 0.5 0.2q0.2 0 0.4-0.1c0.2-0.2 0.3-0.6 0.1-0.9zm-11.9-3.1c-0.2-0.2-0.5-0.3-0.8-0.1l-5.6 4.3c-0.3 0.2-0.3 0.6-0.1 0.8q0.2 0.3 0.5 0.3q0.2 0 0.3-0.2l5.6-4.2c0.3-0.2 0.3-0.6 0.1-0.9zm-6 7.9c-0.3-0.2-0.6-0.2-0.9 0l-0.4 0.5l-0.5-0.5c-0.2-0.2-0.6-0.2-0.8 0c-0.3 0.3-0.3 0.6 0 0.9l0.4 0.4l-0.4 0.5c-0.3 0.2-0.3 0.6 0 0.8c0.2 0.3 0.6 0.3 0.8 0l0.5-0.4l0.4 0.4q0.2 0.2 0.4 0.2q0.3 0 0.5-0.2c0.2-0.2 0.2-0.6 0-0.8l-0.5-0.5l0.5-0.4c0.2-0.3 0.2-0.6 0-0.9zm5.8-11.3c0-0.3-0.3-0.6-0.7-0.5l-8.1 1c-0.3 0.1-0.5 0.4-0.5 0.7c0 0.3 0.3 0.5 0.6 0.5q0 0 0.1 0l8.1-1.1c0.3 0 0.5-0.3 0.5-0.6zm7.3 7c0-0.4-0.3-0.6-0.7-0.5c-0.3 0-0.5 0.3-0.5 0.6l0.9 6.7c0.1 0.3 0.3 0.6 0.6 0.6q0.1 0 0.1 0c0.3-0.1 0.6-0.4 0.5-0.7zm-2.4-0.5c-0.4 0-0.7 0.2-0.7 0.5l-0.9 6.7c-0.1 0.3 0.1 0.6 0.5 0.7q0 0 0 0c0.3 0 0.6-0.2 0.6-0.5l1-6.7c0-0.3-0.2-0.6-0.5-0.7zm-4.7-0.1c-0.3-0.2-0.6-0.1-0.8 0.2l-3 3.8c-0.2 0.3-0.2 0.7 0.1 0.9q0.2 0.1 0.4 0.1q0.2 0 0.4-0.3l3-3.8c0.2-0.3 0.2-0.7-0.1-0.9z" /></svg>