<svg version="1.2" xmlns="http://www.w3.org/2000/svg" viewBox="0 0 33 31" width="33" height="31"><style>.s0{fill:#b5b5b5}</style><path class="s0" d="m31.7 30.7h-6.8h-17.5h-6.8c-0.3 0-0.6-0.3-0.6-0.6v-6.9v-4.3v-3.4v-4.3v-3.9c0-0.4 0.3-0.6 0.6-0.6h6.2v-6.1c0-0.3 0.3-0.6 0.6-0.6h17.5c0.3 0 0.6 0.3 0.6 0.6v6.1h6.2c0.3 0 0.6 0.2 0.6 0.6v3.9v4.3v3.4v4.3v6.9c0 0.3-0.3 0.6-0.6 0.6zm-30.6-8.1h3.2v-3.1h-3.2zm0-7.7h3.2v-3.1h-3.2zm5.7-7.1h-5.7v2.8h3.8c0.3 0 0.5 0.3 0.5 0.6v4.3c0 0.3-0.2 0.5-0.5 0.5h-3.8v2.2h3.8c0.3 0 0.5 0.3 0.5 0.6v4.3c0 0.3-0.2 0.6-0.5 0.6h-3.8v5.8h5.7zm7 21.7h4.7v-8.4h-4.7zm10.5-22.3v-6.1h-16.3v6.1v22.3h4.6v-8.9c0-0.3 0.3-0.6 0.6-0.6h5.9c0.3 0 0.6 0.3 0.6 0.6v8.9h4.6zm6.9 4.6h-3.2v3.1h3.2zm0 7.7h-3.2v3.1h3.2zm0 4.3h-3.8c-0.3 0-0.5-0.3-0.5-0.6v-4.3c0-0.3 0.2-0.5 0.5-0.5h3.8v-2.3h-3.8c-0.3 0-0.5-0.2-0.5-0.5v-4.3c0-0.3 0.2-0.6 0.5-0.6h3.8v-2.8h-5.7v21.7h5.7zm-14-7.3v-4.3c0-0.3 0.2-0.6 0.6-0.6h4.2c0.4 0 0.6 0.3 0.6 0.6v4.3c0 0.3-0.2 0.5-0.6 0.5h-4.2c-0.4 0-0.6-0.2-0.6-0.5zm1.1-0.6h3.2v-3.2h-3.2zm3.7-6.5h-4.2c-0.4 0-0.6-0.2-0.6-0.5v-4.3c0-0.3 0.2-0.6 0.6-0.6h4.2c0.4 0 0.6 0.3 0.6 0.6v4.3c0 0.3-0.2 0.5-0.6 0.5zm-0.5-4.2h-3.2v3.1h3.2zm-7 11.9h-4.2c-0.4 0-0.6-0.2-0.6-0.5v-4.3c0-0.3 0.2-0.6 0.6-0.6h4.2c0.4 0 0.6 0.3 0.6 0.6v4.3c0 0.3-0.2 0.5-0.6 0.5zm-0.5-4.3h-3.2v3.2h3.2zm0.5-3.4h-4.2c-0.4 0-0.6-0.2-0.6-0.6v-4.2c0-0.4 0.2-0.6 0.6-0.6h4.2c0.4 0 0.6 0.2 0.6 0.6v4.2c0 0.4-0.2 0.6-0.6 0.6zm-0.5-4.3h-3.2v3.2h3.2z" /></svg>