<svg version="1.2" xmlns="http://www.w3.org/2000/svg" viewBox="0 0 130 130" width="130" height="130"><style>.s0{opacity: .1;fill:#ffffff}</style><path class="s0" d="m127.6 13.9l-65.2 65.2q-0.3 0.3-0.7 0.5l-14.5 5.8q-0.3 0.2-0.7 0.2c-0.6 0-1.1-0.2-1.5-0.6c-0.5-0.6-0.7-1.5-0.4-2.2l5.8-14.5q0.2-0.4 0.5-0.7l65.2-65.2c1.6-1.6 3.6-2.4 5.8-2.4c2.1 0 4.2 0.8 5.7 2.4c1.6 1.5 2.4 3.6 2.4 5.7c0 2.2-0.8 4.2-2.4 5.8zm-77.4 65.9l7.5-3l-4.5-4.5zm65.4-71.1l-60.1 60.1l5.7 5.7l60.1-60.1zm9.2-3.4c-0.7-0.8-1.8-1.2-2.8-1.2c-1.1 0-2.1 0.4-2.9 1.2l-0.6 0.6l5.7 5.7l0.6-0.6c0.8-0.8 1.2-1.8 1.2-2.9c0-1-0.4-2.1-1.2-2.8zm-45.5 108.5h-60.9c-1.2 0-2.1-0.9-2.1-2.1c0-1.1 0.9-2 2.1-2h60.9c1.1 0 2 0.9 2 2c0 1.2-0.9 2.1-2 2.1zm0-10.2h-60.9c-1.2 0-2.1-0.9-2.1-2c0-1.1 0.9-2.1 2.1-2.1h60.9c1.1 0 2 1 2 2.1c0 1.1-0.9 2-2 2zm-60.9-24.4h20.3c1.1 0 2 0.9 2 2.1c0 1.1-0.9 2-2 2h-20.3c-1.2 0-2.1-0.9-2.1-2c0-1.2 0.9-2.1 2.1-2.1zm24.3-6.1h-24.3c-1.2 0-2.1-0.9-2.1-2c0-1.1 0.9-2 2.1-2h24.3c1.2 0 2.1 0.9 2.1 2c0 1.1-0.9 2-2.1 2zm-26.4-22.3c0-1.1 0.9-2 2.1-2h40.6c1.1 0 2 0.9 2 2c0 1.1-0.9 2-2 2h-40.6c-1.2 0-2.1-0.9-2.1-2zm32.5 12.2h-30.4c-1.2 0-2.1-0.9-2.1-2.1c0-1.1 0.9-2 2.1-2h30.4c1.2 0 2.1 0.9 2.1 2c0 1.2-0.9 2.1-2.1 2.1zm30.5 30.5h-60.9c-1.2 0-2.1-1-2.1-2.1c0-1.1 0.9-2 2.1-2h60.9c1.1 0 2 0.9 2 2c0 1.1-0.9 2.1-2 2.1zm-1.4-21c-0.4-0.3-0.6-0.9-0.6-1.4c0-0.5 0.2-1.1 0.6-1.4c0.3-0.4 0.9-0.6 1.4-0.6c0.5 0 1.1 0.2 1.4 0.6c0.4 0.3 0.6 0.9 0.6 1.4c0 0.5-0.2 1.1-0.6 1.4c-0.3 0.4-0.9 0.6-1.4 0.6c-0.5 0-1.1-0.2-1.4-0.6zm1.4 10.8h-10.1c-1.2 0-2.1-0.9-2.1-2c0-1.2 0.9-2.1 2.1-2.1h10.1c1.1 0 2 0.9 2 2.1c0 1.1-0.9 2-2 2zm-4.1-46.7h-65c-3.3 0-6 2.7-6 6.1v77.2c0 3.3 2.7 6.1 6 6.1h77.2c3.4 0 6.1-2.8 6.1-6.1v-65c0-1.2 0.9-2.1 2.1-2.1c1.1 0 2 0.9 2 2.1v65c0 5.6-4.6 10.1-10.2 10.1h-77.2c-5.6 0-10.1-4.5-10.1-10.1v-77.2c0-5.6 4.5-10.2 10.1-10.2h65c1.2 0 2.1 0.9 2.1 2c0 1.2-0.9 2.1-2.1 2.1z" /></svg>