<svg version="1.2" xmlns="http://www.w3.org/2000/svg" viewBox="0 0 12 16" width="12" height="16"><style>.s0{fill:#ffffff}</style><path class="s0" d="m6.2 15.9c0 0.1-0.3 0.2-0.4 0c-0.3-0.3-5.8-6.3-5.8-9.7c0-3.4 2.7-6.2 6-6.2c3.3 0 6 2.8 6 6.2c0 3.4-5.5 9.4-5.8 9.7zm-0.2-15.2c-2.9 0-5.3 2.5-5.3 5.5c0 2.7 4.2 7.7 5.3 9c1.1-1.3 5.3-6.3 5.3-9c0-3-2.4-5.5-5.3-5.5zm0 8.6c-1.7 0-3-1.4-3-3.1c0-1.7 1.3-3.1 3-3.1c1.7 0 3 1.4 3 3.1c0 1.7-1.3 3.1-3 3.1zm0-5.5c-1.3 0-2.4 1.1-2.4 2.4c0 1.4 1.1 2.5 2.4 2.5c1.3 0 2.4-1.1 2.4-2.5c0-1.3-1.1-2.4-2.4-2.4z" /></svg>