<svg version="1.2" xmlns="http://www.w3.org/2000/svg" viewBox="0 0 15 10" width="15" height="10"><style>.s0{fill:#aec9e2}</style><path class="s0" d="m15 1.3v7.4c0 0.4-0.1 0.7-0.3 0.9q0 0-0.1 0q0 0 0 0c-0.2 0.3-0.5 0.4-0.9 0.4h-12.4c-0.4 0-0.7-0.1-0.9-0.4q0 0 0 0q-0.1 0-0.1 0c-0.2-0.2-0.3-0.5-0.3-0.9v-7.4c0-0.4 0.1-0.7 0.3-0.9q0 0 0 0q0 0 0 0c0.3-0.2 0.6-0.4 1-0.4h12.4c0.4 0 0.7 0.2 1 0.4q0 0 0 0q0 0 0 0c0.2 0.2 0.3 0.5 0.3 0.9zm-4.9 3.3l4.3-3.6q0.1 0.1 0.1 0.3v7.4q0 0.2-0.1 0.3zm3.7-4.1q0.1 0 0.3 0.1l-6.6 5.5l-6.5-5.5q0.1-0.1 0.3-0.1zm-13.2 8.5q0-0.1 0-0.3v-7.4q0-0.2 0-0.3l4.4 3.6zm0.7 0.5q-0.2 0-0.4-0.1l4.4-4.5l2 1.7q0.1 0.1 0.2 0.1q0.1 0 0.2-0.1l2-1.7l4.4 4.5q-0.2 0.1-0.4 0.1z" /></svg>