<svg version="1.2" xmlns="http://www.w3.org/2000/svg" viewBox="0 0 16 16" width="16" height="16"><style>.s0{fill:#aec9e2}</style><path class="s0" d="m15.6 14.2l-1.1 1.2q-0.7 0.6-1.8 0.6q-1 0-2.4-0.6c-1.9-0.7-3.9-2.2-5.7-4c-1.8-1.8-3.3-3.8-4-5.7c-0.8-1.9-0.8-3.3 0-4.2l1.2-1.1c0.3-0.3 0.6-0.4 1-0.4c0.4 0.1 0.7 0.3 0.9 0.6l2.3 4c0.3 0.4 0.2 1.1-0.2 1.5l-0.8 0.7c-0.2 0.2-0.2 0.6 0 0.8q0.7 0.9 1.6 1.8q0.9 0.9 1.8 1.6c0.2 0.2 0.6 0.2 0.8 0l0.7-0.8c0.4-0.4 1-0.5 1.5-0.2l4 2.3c0.3 0.2 0.5 0.5 0.6 0.9c0 0.4-0.1 0.7-0.4 1zm-4.4-3.8l3.9 2.3q0.3 0.2 0.4 0.5q0 0.3-0.2 0.6l-5.2-3l0.2-0.3c0.2-0.2 0.6-0.2 0.9-0.1zm-8.4-9.9q0.3 0.1 0.5 0.4l2.3 3.9c0.1 0.3 0.1 0.7-0.2 0.9l-0.1 0.2l-3.1-5.2q0.2-0.2 0.5-0.2q0 0 0.1 0zm11.3 14.5c-0.6 0.7-2 0.6-3.6-0.1c-1.8-0.7-3.8-2.1-5.5-3.9c-1.8-1.7-3.2-3.7-3.9-5.5c-0.7-1.6-0.8-3-0.1-3.6l0.9-0.9l3 5.3l-0.2 0.2c-0.4 0.4-0.5 1-0.1 1.4q0.8 1 1.6 1.9q0.9 0.8 1.9 1.6c0.4 0.4 1 0.3 1.4-0.1l0.2-0.2l5.3 3z" /></svg>