<svg version="1.2" xmlns="http://www.w3.org/2000/svg" viewBox="0 0 32 32" width="32" height="32"><style>.s0{fill:#b5b5b5}</style><path class="s0" d="m30.4 8.8l-2.6 2.3l2.1 18.3c0 0.2-0.1 0.4-0.2 0.6l-2 1.9c-0.3 0.3-0.8 0.3-1.1-0.1l-6.9-13.4l-4.9 4.3l1 7.2c0 0.2-0.1 0.4-0.2 0.5l-1.2 1.3c-0.3 0.3-0.9 0.4-1.1-0.2l-2.9-5.8c-1.1 0.2-2.2-0.2-3-1c-0.8-0.8-1.1-1.9-1-2.9l-5.8-2.9c-0.4-0.2-0.5-0.7-0.1-1.1l1.2-1.2c0.2-0.1 0.4-0.2 0.6-0.2l7.2 1l4.2-5l-13.3-6.9c-0.5-0.2-0.5-0.8-0.2-1.1l1.9-1.9c0.1-0.2 0.4-0.2 0.6-0.2l18.3 2.1l2.3-2.7c0.9-1.2 4.3-3 7.4-0.3c2.7 2.9 0.9 6.5-0.3 7.4zm-0.9-1.2l-2.9 2.6q-0.2 0.3-0.2 0.6l2.1 18.4l-1 1l-6.9-13.2c-0.3-0.4-0.8-0.4-1.1-0.1l-6 4.9c-0.1 0.2-0.2 0.5-0.2 0.7l1 7.2l-0.3 0.3l-2.7-5.4c-0.1-0.2-0.4-0.4-0.8-0.3c-0.7 0.2-1.6 0-2.2-0.5c-0.6-0.7-0.8-1.5-0.5-2.2c0.1-0.4-0.1-0.7-0.4-0.8l-5.3-2.7l0.3-0.3l7.2 1c0.2 0.1 0.5 0 0.6-0.2l5-6c0.2-0.1 0.3-0.7-0.2-1l-13.1-6.9l0.9-1.3l18.4 2.1c0.2 0 0.4-0.1 0.6-0.2l2.6-2.9c0.5-0.7 3-2.2 5.3-0.1c2.3 2.1 0.5 4.9-0.2 5.3z" /></svg>