<svg version="1.2" xmlns="http://www.w3.org/2000/svg" viewBox="0 0 30 33" width="30" height="33"><style>.s0{fill:#b5b5b5}</style><path class="s0" d="m26.2 24.1q-0.1 0.1-0.3 0.1q-0.1 0-0.3-0.1c-0.1-0.1-3.7-2.8-3.7-6.1c0-2.2 1.8-4.1 4-4.1c2.3 0 4.1 1.9 4.1 4.1c0 3.3-3.6 6-3.8 6.1zm-0.3-9.1c-1.7 0-3 1.3-3 3c0 2.3 2.2 4.3 3 5c0.8-0.7 3.1-2.7 3.1-5c0-1.7-1.4-3-3.1-3zm0 5.1c-1.1 0-2-0.9-2-2.1c0-1.1 0.9-2 2-2c0.3 0 0.5 0.2 0.5 0.5c0 0.3-0.2 0.5-0.5 0.5c-0.5 0-1 0.5-1 1c0 0.6 0.5 1.1 1 1.1c0.6 0 1-0.5 1-1.1c0-0.2 0.3-0.5 0.6-0.5c0.2 0 0.5 0.3 0.5 0.5c0 1.2-0.9 2.1-2.1 2.1zm-0.5-7.2q-0.1 0-0.2 0c-0.2 0-0.4-0.1-0.5-0.2q0-0.2-0.1-0.3h-2q0.3 0.7 0.5 1.4c0.1 0.3 0 0.6-0.3 0.6q-0.1 0.1-0.2 0.1c-0.2 0-0.4-0.2-0.4-0.4q-0.3-0.9-0.7-1.7h-3.7c0.3 1.9 0.5 4 0.5 6.1h2.5c0.3 0 0.6 0.3 0.6 0.6c0 0.2-0.3 0.5-0.6 0.5h-2.5c0 1.9-0.2 3.8-0.5 5.6h4q0.4-1.1 0.6-2.2c0.1-0.2 0.4-0.4 0.6-0.4c0.3 0.1 0.5 0.4 0.4 0.7q-0.2 1-0.6 1.9h2.1q0-0.1 0.1-0.2c0.1-0.2 0.4-0.3 0.7-0.2c0.2 0.1 0.3 0.4 0.2 0.7c-2.4 4.5-7.1 7.4-12.2 7.4c-3.6 0-7.1-1.5-9.7-4.1c-2.6-2.6-4-6.1-4-9.7c0-2.6 0.7-5.1 2-7.3q0.1-0.2 0.3-0.3q0.4-0.7 0.9-1.3c0.1-0.2 0.5-0.2 0.7 0c0.2 0.2 0.2 0.5 0.1 0.7q-0.3 0.2-0.4 0.5h1.9q0.1 0 0.2 0h4.2c0.4-2.1 1.1-3.9 1.9-5q-0.5 0.1-1 0.2c-0.3 0.1-0.6-0.1-0.6-0.4c-0.1-0.2 0.1-0.5 0.4-0.6q1.5-0.3 3.1-0.3c2.5 0 4.9 0.6 7 1.9c1.8 1 3.3 2.5 4.5 4.3q0.2 0.1 0.2 0.3q0.1 0.2 0.2 0.4c0.2 0.2 0.1 0.5-0.2 0.7zm-1.1 13.3h-1.9c-0.6 1.5-1.5 2.8-2.6 3.9q-0.2 0.2-0.3 0.4c1.9-1 3.5-2.5 4.8-4.3zm-5.2 3.2c0.9-0.9 1.6-2 2.2-3.2h-3.6c-0.5 2.2-1.1 4.1-1.9 5.3q1.8-0.6 3.3-2.1zm-11.1 1q-0.8-0.7-1.5-1.6q-0.9-1.2-1.5-2.6h-1.8c1.2 1.8 2.9 3.3 4.8 4.2zm-5.4-5.2h2c-0.6-1.7-1-3.7-1-5.6h-2.6c0.1 2 0.7 3.9 1.6 5.6zm0.3-12.8c-1.1 1.9-1.8 4-1.9 6.1h2.6c0-2.1 0.5-4.2 1.2-6.1zm7.4 4.1c0 0.3-0.3 0.5-0.6 0.5c-0.2 0-0.4-0.2-0.4-0.5c0.1-1.4 0.2-2.8 0.4-4.1h-3.7c-0.9 1.9-1.3 4-1.4 6.1h1c0.3 0 0.5 0.3 0.5 0.6c0 0.2-0.2 0.5-0.5 0.5h-1c0.1 2 0.5 3.9 1.1 5.6h0.4c0.3 0 0.6 0.2 0.6 0.5c0 0.3-0.3 0.5-0.5 0.5c1.3 2.6 3.2 4.6 5.5 5.3q-0.5-0.7-0.9-1.9c-0.1-0.3 0-0.5 0.2-0.7c0.3-0.1 0.6 0.1 0.7 0.3c0.6 1.7 1.4 2.6 2.1 2.6c0.8 0 1.7-1.3 2.4-3.5q0.3-1 0.5-2.1h-1.9c-0.3 0-0.5-0.2-0.5-0.5c0-0.3 0.2-0.5 0.5-0.5h2.1c0.2-1.7 0.4-3.6 0.4-5.6h-2.5c-0.3 0-0.5-0.3-0.5-0.5c0-0.3 0.2-0.6 0.5-0.6h2.5c0-2.1-0.2-4.2-0.5-6.1h-6q-0.4 1.9-0.5 4.1zm3.5-10.2c-0.7 0-1.5 1-2.2 2.7q-0.3 1.1-0.6 2.4h5.6q-0.2-0.8-0.4-1.6c-0.7-2.2-1.6-3.5-2.4-3.5zm2 0.3c0.8 1.1 1.4 2.8 1.8 4.8h3.5c-1.3-2.4-3.2-4.1-5.3-4.8zm4.4 1.4q-0.3-0.2-0.7-0.3c1.1 0.9 2 2.2 2.7 3.7h1.7c-1-1.4-2.2-2.5-3.7-3.4zm-9.7 20.2q-0.1 0.1-0.3 0.1q-0.1 0-0.3-0.1c-0.1-0.2-3.8-2.8-3.8-6.1c0-2.2 1.9-4.1 4.1-4.1c2.3 0 4.1 1.9 4.1 4.1c0 3.2-3.6 5.9-3.8 6.1zm-0.3-9.1c-1.7 0-3 1.3-3 3c0 2.3 2.2 4.3 3 5c0.8-0.7 3.1-2.8 3.1-5c0-1.7-1.4-3-3.1-3zm0 5.1c-1.1 0-2-1-2-2.1c0-1.1 0.9-2 2-2c0.3 0 0.5 0.2 0.5 0.5c0 0.3-0.2 0.5-0.5 0.5c-0.6 0-1 0.5-1 1c0 0.6 0.4 1 1 1c0.6 0 1-0.4 1-1c0-0.3 0.3-0.5 0.5-0.5c0.3 0 0.5 0.2 0.5 0.5c0 1.1-0.9 2.1-2 2.1zm-4.3-13.9q-0.1 0.1-0.3 0.1q-0.1 0-0.3-0.1c-0.1-0.1-3.7-2.8-3.7-6.1c0-2.2 1.8-4.1 4-4.1c2.3 0 4.1 1.9 4.1 4.1c0 3.3-3.6 6-3.8 6.1zm-0.3-9.1c-1.6 0-3 1.3-3 3c0 2.3 2.2 4.3 3 5c0.9-0.7 3.1-2.7 3.1-5c0-1.7-1.4-3-3.1-3zm-2 3c0-1.1 0.9-2 2-2c0.3 0 0.5 0.2 0.5 0.5c0 0.3-0.2 0.5-0.5 0.5c-0.5 0-1 0.5-1 1c0 0.6 0.5 1.1 1 1.1c0.6 0 1.1-0.5 1.1-1.1c0-0.2 0.2-0.5 0.5-0.5c0.2 0 0.5 0.3 0.5 0.5c0 1.2-0.9 2.1-2.1 2.1c-1.1 0-2-0.9-2-2.1z" /></svg>